# xmcd CD database file
#
# Track frame offsets:
#	150
#	11426
#	19975
#	30283
#	37976
#	48380
#	58365
#	69416
#	79920
#	90018
#	99533
#	109757
#	121143
#	131008
#	142071
#	155143
#	167974
#	182518
#	191939
#	200478
#	214160
#	227638
#	248323
#	258686
#	268223
#	277292
#	287118
#	294625
#	305406
#	315686
#	326410
#
# Disc length: 4545 seconds
#
# Revision: 1
# Processed by: cddbd v1.5.2PL0 Copyright (c) Steve Scherf et al.
# Submitted via: CDex 1.94
#
DISCID=cf11bf1f
DTITLE=Various Artist - 62 Classics From The Cramps' Insane Collection 2
DYEAR=1900
DGENRE=Blues
TTITLE0=Rodger and The Tempests - Bad Bad Way
TTITLE1=Ronnie Dawson - Rockin' Bones
TTITLE2=Ivan - Real Wild Child
TTITLE3=Betty Smith and The Rhythmmasters - Yeah Baby
TTITLE4=The Dynamos - Woh! Woh! Yea! Yea!
TTITLE5=The Camelots - The Chase (Part 2)
TTITLE6=The Sparkles - The U.T.
TTITLE7=Buddy Miller - Teen Twist
TTITLE8=Ronnie Self - Date Bait
TTITLE9=Dicky Doo and The Don'ts - Nee Nee Na Na Na Na
TTITLE10=The Lifeguards - Everybody Out'ta The Pool
TTITLE11=Royal Teens - Leotards
TTITLE12=The Versatones - Bila
TTITLE13=Robert Mitchum - Ballad Of Thunder Road
TTITLE14=The Clovers - Your Cash Ain't Nothin' But Trash
TTITLE15=Andre Williams and The Don Juans -  Pulling Time
TTITLE16=Billy Ward and The Dominoes - The Bells
TTITLE17=Chuck Ranado and The Electronaires - My Baby's Gone
TTITLE18=Johnnie Honeycutt - Blue Song Of Love
TTITLE19=Lonnie Johnson - Tomorrow Night
TTITLE20=Kay Martin - The Heel
TTITLE21=Ken Nordine - Fliberty Jib
TTITLE22=Bob Lee - Wanted For Questioning
TTITLE23=Wortham Watts - Cotton Picker
TTITLE24=Johnny Burnette and His Trio - Honey Hush
TTITLE25=The Gamblers - LSD-25
TTITLE26=Duane Eddy - Ramrod
TTITLE27=The Chiefs - Apache
TTITLE28=Paul Peek - Olds-Mo-William
TTITLE29=Tony Burrello - There's A New Sound
TTITLE30=Spike Jones and His City Slickers - Chloe
EXTD=
EXTT0=
EXTT1=
EXTT2=
EXTT3=
EXTT4=
EXTT5=
EXTT6=
EXTT7=
EXTT8=
EXTT9=
EXTT10=
EXTT11=
EXTT12=
EXTT13=
EXTT14=
EXTT15=
EXTT16=
EXTT17=
EXTT18=
EXTT19=
EXTT20=
EXTT21=
EXTT22=
EXTT23=
EXTT24=
EXTT25=
EXTT26=
EXTT27=
EXTT28=
EXTT29=
EXTT30=
PLAYORDER=
